<svg width="209" height="69" viewBox="0 0 209 69" fill="none" xmlns="http://www.w3.org/2000/svg">
<path d="M2.88344 64.8211C2.21255 64.8211 1.64759 64.5865 1.18856 64.1172C0.72953 63.648 0.500015 63.0705 0.500015 62.3847V30.0612C0.500015 29.0866 0.83546 28.2565 1.50635 27.5706C2.17724 26.8487 2.98936 26.4878 3.94273 26.4878H5.69057C6.39677 26.4878 7.05001 26.7043 7.65027 27.1375C8.25054 27.5706 8.67426 28.1121 8.92143 28.7618L20.9445 59.4068L32.9675 28.7618C33.25 28.1121 33.6737 27.5706 34.2386 27.1375C34.8389 26.7043 35.4921 26.4878 36.1983 26.4878H37.9462C38.8996 26.4878 39.7117 26.8487 40.3826 27.5706C41.0535 28.2565 41.3889 29.0866 41.3889 30.0612V62.3847C41.3889 63.0705 41.1594 63.648 40.7004 64.1172C40.2413 64.5865 39.6764 64.8211 39.0055 64.8211C38.3346 64.8211 37.752 64.5865 37.2576 64.1172C36.7986 63.648 36.5691 63.0705 36.5691 62.3847V31.6314L24.3342 62.5471C24.0517 63.2329 23.6104 63.7924 23.0101 64.2255C22.4098 64.6226 21.7213 64.8211 20.9445 64.8211C20.1676 64.8211 19.4791 64.6226 18.8788 64.2255C18.2786 63.7924 17.8372 63.2329 17.5547 62.5471L5.31982 31.6314V62.3847C5.31982 63.0705 5.07265 63.648 4.57831 64.1172C4.11928 64.5865 3.55432 64.8211 2.88344 64.8211Z" fill="black"/>
<path d="M92.7275 27.5691C93.3828 27.5691 93.9346 27.8266 94.383 28.3417C94.8314 28.8568 95.0556 29.4907 95.0556 30.2435C95.0556 31.6202 94.0248 32.6208 92.6345 32.6208L48.7246 32.6802C48.1038 32.6802 47.5864 32.4227 47.1726 31.9076C46.7242 31.4321 46.5 30.8378 46.5 30.1247C46.5 29.4115 46.7242 28.8172 47.1726 28.3417C47.5864 27.8663 48.1038 27.6285 48.7246 27.6285L92.7275 27.5691Z" fill="black"/>
<path d="M92.7275 42.9024C93.3828 42.9024 93.9346 43.16 94.383 43.675C94.8314 44.1901 95.0556 44.824 95.0556 45.5768C95.0556 46.9535 94.0248 47.9541 92.6345 47.9541L48.7246 48.0135C48.1038 48.0135 47.5864 47.756 47.1726 47.2409C46.7242 46.7655 46.5 46.1712 46.5 45.458C46.5 44.7448 46.7242 44.1505 47.1726 43.675C47.5864 43.1996 48.1038 42.9619 48.7246 42.9619L92.7275 42.9024Z" fill="#E69D11"/>
<path d="M92.7275 59.71C93.3828 59.71 93.9346 59.9675 94.383 60.4826C94.8314 60.9977 95.0556 61.6316 95.0556 62.3844C95.0556 63.7611 94.0248 64.7617 92.6345 64.7617L48.7246 64.8211C48.1038 64.8211 47.5864 64.5636 47.1726 64.0485C46.7242 63.573 46.5 62.9787 46.5 62.2656C46.5 61.5524 46.7242 60.9581 47.1726 60.4826C47.5864 60.0072 48.1038 59.7694 48.7246 59.7694L92.7275 59.71Z" fill="black"/>
<path d="M115.474 64.8211C114.807 64.8211 114.246 64.5848 113.79 64.1122C113.335 63.6397 113.107 63.058 113.107 62.3673V31.1227H102.376C101.745 31.1227 101.219 30.9046 100.798 30.4683C100.377 30.0321 100.167 29.4868 100.167 28.8325C100.167 28.1782 100.377 27.6329 100.798 27.1966C101.219 26.7241 101.745 26.4878 102.376 26.4878H128.571C129.203 26.4878 129.729 26.7241 130.15 27.1966C130.605 27.6329 130.833 28.1782 130.833 28.8325C130.833 29.4868 130.605 30.0321 130.15 30.4683C129.729 30.9046 129.203 31.1227 128.571 31.1227H117.893V62.3673C117.893 63.058 117.648 63.6397 117.157 64.1122C116.701 64.5848 116.14 64.8211 115.474 64.8211Z" fill="black"/>
<path d="M192.337 25.9878C195.256 25.9878 197.728 26.3805 199.736 27.187H199.735C201.752 27.9433 203.372 28.9866 204.57 30.3315L204.794 30.5757C205.895 31.8002 206.691 33.1556 207.176 34.6401H207.177C207.725 36.2035 208 37.7909 208 39.3999C208 41.0091 207.725 42.597 207.177 44.1606L207.176 44.1597C206.659 45.742 205.789 47.1964 204.575 48.521L204.574 48.52C203.375 49.8292 201.754 50.8761 199.733 51.6723L199.728 51.6743C197.723 52.4394 195.253 52.812 192.337 52.812H182.501V64.7593C182.501 65.6318 182.181 66.3837 181.551 66.9829L181.55 66.9819C180.964 67.5759 180.234 67.8764 179.389 67.8764C178.645 67.8764 177.988 67.6439 177.442 67.1821L177.214 66.9702C176.626 66.3681 176.333 65.6199 176.333 64.7593V29.1636C176.333 28.3092 176.622 27.5661 177.201 26.9663L177.313 26.8491C177.879 26.2809 178.58 25.9878 179.389 25.9878H192.337ZM182.501 46.81H191.826C194.632 46.81 196.718 46.4245 198.129 45.7016C199.572 44.9241 200.519 43.9868 201.029 42.9087C201.568 41.7286 201.832 40.5601 201.832 39.3999C201.832 38.3476 201.628 37.322 201.217 36.3198L201.029 35.8911C200.52 34.8139 199.573 33.8961 198.129 33.1567L198.119 33.1518V33.1509C196.711 32.3936 194.63 31.9897 191.826 31.9897H182.501V46.81Z" fill="#4154C0" stroke="#4154C0"/>
<path d="M164.96 0.5C165.964 0.492125 166.899 1.03556 167.83 1.9707L173.646 7.80078L179.243 13.3975L179.259 13.4131L179.273 13.4297C179.93 14.21 180.202 15.0362 180.152 15.8135C180.104 16.5851 179.742 17.2599 179.221 17.7471C178.218 18.6846 176.554 18.976 175.248 17.8955L175.122 17.7861L175.112 17.7773L175.104 17.7676C173.757 16.3986 171.761 14.403 170.103 12.748C169.274 11.9208 168.529 11.1783 167.991 10.6436C167.986 10.6383 167.981 10.6331 167.976 10.6279V51.8662C167.976 54.5848 167.489 56.9788 166.499 59.0352L166.5 59.0361C165.556 61.0357 164.286 62.7108 162.689 64.0527L162.684 64.0576L162.367 63.6699L162.683 64.0576C161.097 65.3506 159.34 66.3119 157.413 66.9395C155.499 67.5628 153.597 67.877 151.71 67.877C149.823 67.8769 147.921 67.5628 146.007 66.9395C144.08 66.3119 142.323 65.3506 140.737 64.0576L140.732 64.0527C139.137 62.7123 137.85 61.0401 136.869 59.0439L136.864 59.0332C135.912 56.9776 135.444 54.5842 135.444 51.8662V29.3418C135.444 28.5039 135.724 27.774 136.286 27.1836L136.395 27.0684C136.945 26.509 137.627 26.2188 138.416 26.2188C139.251 26.2188 139.967 26.5433 140.532 27.168C141.137 27.7561 141.443 28.4911 141.443 29.3418V52.0371C141.443 54.3214 141.94 56.1987 142.902 57.6973C143.914 59.1774 145.196 60.2918 146.755 61.0488H146.756C148.339 61.7792 149.989 62.1435 151.71 62.1436C153.324 62.1436 154.875 61.8236 156.367 61.1816L156.664 61.0488C158.225 60.2907 159.491 59.1753 160.466 57.6934L160.468 57.6904L160.649 57.4053C161.526 55.957 161.977 54.1756 161.977 52.0371V10.5498C161.49 11.0394 160.826 11.7069 160.068 12.4678C158.48 14.0627 156.475 16.0711 154.814 17.7217L154.807 17.7285L154.666 17.8516C151.864 20.1959 148.176 16.5414 150.394 13.7256L150.412 13.7021L150.434 13.6807C152.683 11.4439 154.307 9.80853 156.018 8.08594C157.729 6.36326 159.527 4.55341 162.124 1.96973L162.467 1.64648C163.268 0.933143 164.084 0.506909 164.96 0.5Z" fill="#4154C0" stroke="#4154C0"/>
</svg>
