<svg width="208" height="133" viewBox="0 0 208 133" fill="none" xmlns="http://www.w3.org/2000/svg">
<rect x="69" y="28.1111" width="53.6667" height="38.3333" fill="#E69D11"/>
<path d="M66.4445 11.2222C66.4445 10.6699 66.8922 10.2222 67.4445 10.2222H124.222C124.775 10.2222 125.222 10.6699 125.222 11.2222V23H66.4445V11.2222Z" fill="#4154C0"/>
<rect x="65.3889" y="9.16669" width="60.8889" height="60.8889" rx="1.5" stroke="black" stroke-width="3"/>
<line x1="63.8889" y1="25.0555" x2="127.778" y2="25.0555" stroke="black"/>
<rect x="77.6667" y="1" width="6.82009" height="14.3963" rx="2" fill="#E69D11" stroke="black" stroke-width="2"/>
<rect x="105.778" y="1" width="6.82009" height="14.3963" rx="2" fill="#E69D11" stroke="black" stroke-width="2"/>
<path d="M124.485 23C125.412 23 126.193 23.3014 126.827 23.9043C127.461 24.5072 127.778 25.2492 127.778 26.1304V68.3556C127.778 69.2367 127.461 69.9788 126.827 70.5816C126.193 71.2309 125.412 71.5555 124.485 71.5555H95.1461C94.2681 71.5555 93.5365 71.2541 92.9512 70.6512C92.3171 70.0947 92 69.3991 92 68.5643C92 67.7295 92.3171 67.0339 92.9512 66.4774C93.5365 65.9209 94.2681 65.6426 95.1461 65.6426H121.12V50.269H105.92C105.042 50.269 104.311 49.9676 103.725 49.3647C103.091 48.8082 102.774 48.1125 102.774 47.2778C102.774 46.443 103.091 45.7474 103.725 45.1908C104.311 44.6343 105.042 44.3561 105.92 44.3561H121.12V28.9129H95.1461C94.2681 28.9129 93.5365 28.6115 92.9512 28.0086C92.3171 27.4521 92 26.7564 92 25.9217C92 25.0869 92.3171 24.3913 92.9512 23.8348C93.5365 23.2782 94.2681 23 95.1461 23H124.485Z" fill="black"/>
<path d="M67.1813 71.5556C66.2546 71.5556 65.4741 71.2541 64.84 70.6512C64.206 70.0483 63.8889 69.3063 63.8889 68.4252V26.1999C63.8889 25.3188 64.206 24.5768 64.84 23.9739C65.4741 23.3246 66.2546 23 67.1813 23H96.5206C97.3986 23 98.1302 23.3014 98.7155 23.9043C99.3496 24.4608 99.6667 25.1565 99.6667 25.9912C99.6667 26.826 99.3496 27.5216 98.7155 28.0782C98.1302 28.6347 97.3986 28.9129 96.5206 28.9129H70.5469V44.2865H85.7463C86.6243 44.2865 87.356 44.588 87.9413 45.1909C88.5754 45.7474 88.8924 46.443 88.8924 47.2778C88.8924 48.1125 88.5754 48.8082 87.9413 49.3647C87.356 49.9212 86.6243 50.1995 85.7463 50.1995H70.5469V65.6426H96.5206C97.3986 65.6426 98.1302 65.9441 98.7155 66.547C99.3496 67.1035 99.6667 67.7991 99.6667 68.6339C99.6667 69.4686 99.3496 70.1643 98.7155 70.7208C98.1302 71.2773 97.3986 71.5556 96.5206 71.5556H67.1813Z" fill="black"/>
<path d="M2.38344 129.252C1.71255 129.252 1.14759 129.017 0.688559 128.548C0.22953 128.079 1.52588e-05 127.501 1.52588e-05 126.816V94.4921C1.52588e-05 93.5176 0.33546 92.6874 1.00635 92.0016C1.67724 91.2797 2.48936 90.9187 3.44273 90.9187H5.19057C5.89677 90.9187 6.55001 91.1353 7.15027 91.5684C7.75054 92.0016 8.17426 92.543 8.42143 93.1927L20.4445 123.838L32.4675 93.1927C32.75 92.543 33.1737 92.0016 33.7386 91.5684C34.3389 91.1353 34.9921 90.9187 35.6983 90.9187H37.4462C38.3996 90.9187 39.2117 91.2797 39.8826 92.0016C40.5535 92.6874 40.8889 93.5176 40.8889 94.4921V126.816C40.8889 127.501 40.6594 128.079 40.2004 128.548C39.7413 129.017 39.1764 129.252 38.5055 129.252C37.8346 129.252 37.252 129.017 36.7576 128.548C36.2986 128.079 36.0691 127.501 36.0691 126.816V96.0623L23.8342 126.978C23.5517 127.664 23.1104 128.223 22.5101 128.656C21.9098 129.054 21.2213 129.252 20.4445 129.252C19.6676 129.252 18.9791 129.054 18.3788 128.656C17.7786 128.223 17.3372 127.664 17.0547 126.978L4.81982 96.0623V126.816C4.81982 127.501 4.57265 128.079 4.07831 128.548C3.61928 129.017 3.05432 129.252 2.38344 129.252Z" fill="black"/>
<path d="M92.2275 92C92.8828 92 93.4346 92.2575 93.883 92.7726C94.3314 93.2877 94.5556 93.9216 94.5556 94.6744C94.5556 96.0511 93.5248 97.0517 92.1345 97.0517L48.2246 97.1111C47.6038 97.1111 47.0864 96.8536 46.6726 96.3385C46.2242 95.8631 46 95.2687 46 94.5556C46 93.8424 46.2242 93.2481 46.6726 92.7726C47.0864 92.2972 47.6038 92.0594 48.2246 92.0594L92.2275 92Z" fill="black"/>
<path d="M92.2275 107.333C92.8828 107.333 93.4346 107.591 93.883 108.106C94.3314 108.621 94.5556 109.255 94.5556 110.008C94.5556 111.384 93.5248 112.385 92.1345 112.385L48.2246 112.444C47.6038 112.444 47.0864 112.187 46.6726 111.672C46.2242 111.196 46 110.602 46 109.889C46 109.176 46.2242 108.581 46.6726 108.106C47.0864 107.631 47.6038 107.393 48.2246 107.393L92.2275 107.333Z" fill="#E69D11"/>
<path d="M92.2275 124.141C92.8828 124.141 93.4346 124.398 93.883 124.914C94.3314 125.429 94.5556 126.063 94.5556 126.815C94.5556 128.192 93.5248 129.193 92.1345 129.193L48.2246 129.252C47.6038 129.252 47.0864 128.994 46.6726 128.479C46.2242 128.004 46 127.41 46 126.696C46 125.983 46.2242 125.389 46.6726 124.914C47.0864 124.438 47.6038 124.2 48.2246 124.2L92.2275 124.141Z" fill="black"/>
<path d="M114.974 129.252C114.307 129.252 113.746 129.016 113.29 128.543C112.835 128.071 112.607 127.489 112.607 126.798V95.5536H101.876C101.245 95.5536 100.719 95.3355 100.298 94.8993C99.8771 94.463 99.6667 93.9178 99.6667 93.2634C99.6667 92.6091 99.8771 92.0638 100.298 91.6276C100.719 91.155 101.245 90.9187 101.876 90.9187H128.071C128.703 90.9187 129.229 91.155 129.65 91.6276C130.105 92.0638 130.333 92.6091 130.333 93.2634C130.333 93.9178 130.105 94.463 129.65 94.8993C129.229 95.3355 128.703 95.5536 128.071 95.5536H117.393V126.798C117.393 127.489 117.148 128.071 116.657 128.543C116.201 129.016 115.64 129.252 114.974 129.252Z" fill="black"/>
<path d="M191.837 90.4187C194.756 90.4187 197.228 90.8114 199.236 91.6179H199.235C201.252 92.3742 202.872 93.4175 204.07 94.7625L204.294 95.0066C205.395 96.2311 206.191 97.5866 206.676 99.071H206.677C207.225 100.634 207.5 102.222 207.5 103.831C207.5 105.44 207.225 107.028 206.677 108.592L206.676 108.591C206.159 110.173 205.289 111.627 204.075 112.952L204.074 112.951C202.875 114.26 201.254 115.307 199.233 116.103L199.228 116.105C197.223 116.87 194.753 117.243 191.837 117.243H182.001V129.19C182.001 130.063 181.681 130.815 181.051 131.414L181.05 131.413C180.464 132.007 179.734 132.307 178.889 132.307C178.145 132.307 177.488 132.075 176.942 131.613L176.714 131.401C176.126 130.799 175.833 130.051 175.833 129.19V93.5945C175.833 92.7401 176.122 91.9971 176.701 91.3972L176.813 91.28C177.379 90.7118 178.08 90.4187 178.889 90.4187H191.837ZM182.001 111.241H191.326C194.132 111.241 196.218 110.855 197.629 110.133C199.072 109.355 200.019 108.418 200.529 107.34C201.068 106.16 201.332 104.991 201.332 103.831C201.332 102.779 201.128 101.753 200.717 100.751L200.529 100.322C200.02 99.2448 199.073 98.327 197.629 97.5876L197.619 97.5828V97.5818C196.211 96.8245 194.13 96.4207 191.326 96.4207H182.001V111.241Z" fill="#4154C0" stroke="#4154C0"/>
<path d="M164.46 64.9309C165.464 64.923 166.399 65.4665 167.33 66.4016L173.146 72.2317L178.743 77.8284L178.759 77.844L178.773 77.8606C179.43 78.641 179.702 79.4671 179.652 80.2444C179.604 81.016 179.242 81.6908 178.721 82.178C177.718 83.1155 176.054 83.4069 174.748 82.3264L174.622 82.217L174.612 82.2083L174.604 82.1985C173.257 80.8295 171.261 78.8339 169.603 77.179C168.774 76.3517 168.029 75.6093 167.491 75.0745C167.486 75.0692 167.481 75.064 167.476 75.0588V116.297C167.476 119.016 166.989 121.41 165.999 123.466L166 123.467C165.056 125.467 163.786 127.142 162.189 128.484L162.184 128.489L161.867 128.101L162.183 128.489C160.597 129.782 158.84 130.743 156.913 131.37C154.999 131.994 153.097 132.308 151.21 132.308C149.323 132.308 147.421 131.994 145.507 131.37C143.58 130.743 141.823 129.782 140.237 128.489L140.232 128.484C138.637 127.143 137.35 125.471 136.369 123.475L136.364 123.464C135.412 121.409 134.944 119.015 134.944 116.297V93.7727C134.944 92.9348 135.224 92.2049 135.786 91.6145L135.895 91.4993C136.445 90.9399 137.127 90.6497 137.916 90.6497C138.751 90.6497 139.467 90.9742 140.032 91.5989C140.637 92.187 140.943 92.922 140.943 93.7727V116.468C140.943 118.752 141.44 120.63 142.402 122.128C143.414 123.608 144.696 124.723 146.255 125.48H146.256C147.839 126.21 149.489 126.574 151.21 126.574C152.824 126.574 154.375 126.255 155.867 125.613L156.164 125.48C157.725 124.722 158.991 123.606 159.966 122.124L159.968 122.121L160.149 121.836C161.026 120.388 161.477 118.607 161.477 116.468V74.9807C160.99 75.4703 160.326 76.1378 159.568 76.8987C157.98 78.4936 155.975 80.502 154.314 82.1526L154.307 82.1594L154.166 82.2825C151.364 84.6268 147.676 80.9723 149.894 78.1565L149.912 78.1331L149.934 78.1116C152.183 75.8748 153.807 74.2394 155.518 72.5168C157.229 70.7942 159.027 68.9843 161.624 66.4006L161.967 66.0774C162.768 65.3641 163.584 64.9378 164.46 64.9309Z" fill="#4154C0" stroke="#4154C0"/>
</svg>
