<svg width="128" height="144" viewBox="0 0 128 144" fill="none" xmlns="http://www.w3.org/2000/svg">
<line x1="0.111145" y1="50.5555" x2="127.889" y2="50.5555" stroke="black" stroke-width="2"/>
<rect x="27.6667" y="2.44446" width="13.6402" height="28.7926" rx="4" stroke="black" stroke-width="4"/>
<rect x="83.8889" y="2.44446" width="13.6402" height="28.7926" rx="4" stroke="black" stroke-width="4"/>
<path d="M121.304 46.4444C123.158 46.4444 124.718 47.0473 125.987 48.2531C127.255 49.4589 127.889 50.9429 127.889 52.7052L127.889 137.156C127.889 138.918 127.255 140.402 125.987 141.608C124.718 142.906 123.158 143.556 121.304 143.556H62.6256C60.8696 143.556 59.4063 142.953 58.2357 141.747C56.9675 140.634 56.3334 139.243 56.3334 137.573C56.3334 135.904 56.9675 134.512 58.2357 133.399C59.4063 132.286 60.8696 131.73 62.6256 131.73H114.573V100.982H84.1741C82.4181 100.982 80.9548 100.38 79.7842 99.1738C78.516 98.0608 77.8819 96.6695 77.8819 95C77.8819 93.3305 78.516 91.9392 79.7842 90.8262C80.9548 89.7131 82.4181 89.1566 84.1741 89.1566H114.573V58.2703H62.6256C60.8696 58.2703 59.4063 57.6674 58.2357 56.4616C56.9675 55.3486 56.3334 53.9573 56.3334 52.2878C56.3334 50.6183 56.9675 49.227 58.2357 48.114C59.4063 47.0009 60.8696 46.4444 62.6256 46.4444H121.304Z" fill="black"/>
<path d="M6.69601 143.556C4.84249 143.556 3.28164 142.953 2.01344 141.747C0.745245 140.541 0.111145 139.057 0.111145 137.295V52.8443C0.111145 51.082 0.745245 49.598 2.01344 48.3922C3.28164 47.0937 4.84249 46.4444 6.69601 46.4444H65.3745C67.1305 46.4444 68.5938 47.0473 69.7644 48.2531C71.0326 49.3661 71.6667 50.7574 71.6667 52.4269C71.6667 54.0964 71.0326 55.4877 69.7644 56.6007C68.5938 57.7138 67.1305 58.2703 65.3745 58.2703H13.4272V89.0175H43.826C45.5819 89.0175 47.0452 89.6204 48.2159 90.8262C49.4841 91.9392 50.1182 93.3305 50.1182 95C50.1182 96.6695 49.4841 98.0608 48.2159 99.1738C47.0452 100.287 45.5819 100.843 43.826 100.843H13.4272V131.73H65.3745C67.1305 131.73 68.5938 132.333 69.7644 133.538C71.0326 134.651 71.6667 136.043 71.6667 137.712C71.6667 139.382 71.0326 140.773 69.7644 141.886C68.5938 142.999 67.1305 143.556 65.3745 143.556H6.69601Z" fill="black"/>
<path d="M29 21.7773H6.11136V137.555H121.889V21.7773H96V15.7773H121.889L122.198 15.7852C125.368 15.9461 127.888 18.5676 127.889 21.7773V137.555L127.881 137.864C127.725 140.932 125.266 143.391 122.198 143.547L121.889 143.555H6.11136L5.80276 143.547C2.73487 143.391 0.27487 140.932 0.119171 137.864L0.111359 137.555V21.7773C0.111582 18.5673 2.63261 15.9458 5.80276 15.7852L6.11136 15.7773H29V21.7773ZM85 21.7773H40V15.7773H85V21.7773Z" fill="black"/>
</svg>
