<svg width="211" height="54" viewBox="0 0 211 54" fill="none" xmlns="http://www.w3.org/2000/svg">
<path d="M122.953 22.2441C123.448 22.2441 123.865 22.4388 124.204 22.8282C124.543 23.2176 124.713 23.6969 124.713 24.266C124.713 25.3068 123.933 26.0632 122.882 26.0632L89.6865 26.1081C89.2171 26.1081 88.826 25.9134 88.5131 25.524C88.1742 25.1646 88.0047 24.7153 88.0047 24.1761C88.0047 23.637 88.1742 23.1877 88.5131 22.8282C88.826 22.4688 89.2171 22.2891 89.6865 22.2891L122.953 22.2441Z" fill="white"/>
<path d="M55.0305 50.4066C54.5234 50.4066 54.0962 50.2293 53.7492 49.8745C53.4022 49.5198 53.2287 49.0832 53.2287 48.5647V24.1282C53.2287 23.3914 53.4823 22.7638 53.9895 22.2453C54.4967 21.6995 55.1106 21.4267 55.8314 21.4267H57.1527C57.6866 21.4267 58.1805 21.5904 58.6343 21.9178C59.0881 22.2453 59.4084 22.6546 59.5953 23.1458L68.6847 46.3134L77.7741 23.1458C77.9876 22.6546 78.308 22.2453 78.7351 21.9178C79.1889 21.5904 79.6827 21.4267 80.2166 21.4267H81.538C82.2587 21.4267 82.8727 21.6995 83.3799 22.2453C83.8871 22.7638 84.1407 23.3914 84.1407 24.1282V48.5647C84.1407 49.0832 83.9672 49.5198 83.6201 49.8745C83.2731 50.2293 82.846 50.4066 82.3388 50.4066C81.8316 50.4066 81.3912 50.2293 81.0175 49.8745C80.6704 49.5198 80.4969 49.0832 80.4969 48.5647V25.3152L71.2473 48.6875C71.0338 49.206 70.7001 49.6289 70.2463 49.9564C69.7925 50.2566 69.272 50.4066 68.6847 50.4066C68.0974 50.4066 67.5769 50.2566 67.1231 49.9564C66.6693 49.6289 66.3356 49.206 66.122 48.6875L56.8725 25.3152V48.5647C56.8725 49.0832 56.6856 49.5198 56.3119 49.8745C55.9648 50.2293 55.5377 50.4066 55.0305 50.4066Z" fill="white"/>
<path d="M122.953 33.8361C123.448 33.8361 123.865 34.0308 124.204 34.4202C124.543 34.8096 124.713 35.2889 124.713 35.858C124.713 36.8987 123.933 37.6552 122.882 37.6552L89.6865 37.7001C89.2171 37.7001 88.826 37.5054 88.5131 37.116C88.1742 36.7566 88.0047 36.3073 88.0047 35.7681C88.0047 35.229 88.1742 34.7797 88.5131 34.4202C88.826 34.0608 89.2171 33.881 89.6865 33.881L122.953 33.8361Z" fill="white"/>
<path d="M122.953 46.5426C123.448 46.5426 123.865 46.7373 124.204 47.1267C124.543 47.5161 124.713 47.9954 124.713 48.5645C124.713 49.6053 123.933 50.3617 122.882 50.3617L89.6865 50.4066C89.2171 50.4066 88.826 50.2119 88.5131 49.8226C88.1742 49.4631 88.0047 49.0138 88.0047 48.4746C88.0047 47.9355 88.1742 47.4862 88.5131 47.1267C88.826 46.7673 89.2171 46.5876 89.6865 46.5876L122.953 46.5426Z" fill="white"/>
<path d="M140.149 50.4066C139.645 50.4066 139.221 50.228 138.876 49.8707C138.532 49.5135 138.359 49.0738 138.359 48.5516V24.9306H130.247C129.77 24.9306 129.372 24.7657 129.054 24.436C128.736 24.1062 128.577 23.6939 128.577 23.1993C128.577 22.7046 128.736 22.2923 129.054 21.9626C129.372 21.6053 129.77 21.4267 130.247 21.4267H150.051C150.528 21.4267 150.926 21.6053 151.244 21.9626C151.588 22.2923 151.761 22.7046 151.761 23.1993C151.761 23.6939 151.588 24.1062 151.244 24.436C150.926 24.7657 150.528 24.9306 150.051 24.9306H141.978V48.5516C141.978 49.0738 141.792 49.5135 141.421 49.8707C141.077 50.228 140.653 50.4066 140.149 50.4066Z" fill="white"/>
<path d="M177.363 1.58737C178.123 1.58138 178.829 1.99257 179.533 2.69968L183.93 7.1069L188.162 11.3374L188.174 11.3491L188.184 11.3618C188.681 11.9517 188.886 12.5769 188.849 13.1645C188.812 13.7478 188.538 14.2582 188.144 14.6264C187.362 15.358 186.046 15.5689 185.046 14.6557L185.032 14.6421C184.014 13.6071 182.506 12.0973 181.252 10.8462C180.625 10.2208 180.062 9.66061 179.655 9.25632C179.651 9.25245 179.647 9.24844 179.643 9.2446V40.4204C179.643 42.4758 179.275 44.2856 178.526 45.8403L178.527 45.8413C177.813 47.3528 176.854 48.6188 175.646 49.6333L175.643 49.6372C174.594 50.4927 173.445 51.1561 172.198 51.6264L171.658 51.8159C170.211 52.2871 168.773 52.5239 167.347 52.5239C166.098 52.5239 164.841 52.343 163.577 51.9819L163.035 51.8159C161.578 51.3414 160.249 50.6148 159.051 49.6372L159.047 49.6333C157.841 48.6198 156.868 47.3554 156.127 45.8462L156.123 45.8383C155.403 44.2844 155.05 42.475 155.05 40.4204V23.3921C155.05 22.8337 155.214 22.3385 155.544 21.9233L155.695 21.7495C156.123 21.2763 156.665 21.0307 157.297 21.0307C157.924 21.0308 158.46 21.2737 158.887 21.7397H158.888C159.35 22.1857 159.585 22.745 159.585 23.3921V40.5493C159.585 42.2738 159.959 43.6916 160.684 44.8237C161.45 45.9454 162.421 46.7896 163.601 47.3628L164.053 47.5571C165.111 47.9796 166.208 48.1899 167.347 48.1899C168.648 48.1899 169.895 47.9148 171.092 47.3628C172.272 46.7897 173.229 45.946 173.966 44.8257L173.968 44.8237L174.104 44.6079C174.767 43.513 175.108 42.166 175.108 40.5493V9.18503C174.74 9.55516 174.239 10.06 173.666 10.6352C172.465 11.841 170.949 13.359 169.692 14.6069L169.682 14.6176C167.552 16.5653 164.648 13.7479 166.351 11.5854L166.365 11.5678L166.382 11.5512C168.082 9.86034 169.309 8.62398 170.602 7.32175C171.896 6.01934 173.256 4.65114 175.22 2.69772L175.478 2.45358C176.084 1.91441 176.701 1.59265 177.363 1.58737Z" fill="white" stroke="white" stroke-width="0.756"/>
<path d="M198.257 21.0487C200.464 21.0487 202.333 21.3452 203.851 21.955H203.85C205.375 22.5268 206.6 23.316 207.505 24.3329L207.838 24.704C208.587 25.5803 209.134 26.5424 209.476 27.5897L209.622 28.0341C209.939 29.0722 210.098 30.124 210.098 31.1884C210.098 32.402 209.89 33.5989 209.478 34.7782L209.479 34.7792C209.089 35.9784 208.43 37.0804 207.509 38.0839L207.508 38.0829C206.602 39.0727 205.376 39.8647 203.848 40.4667L203.844 40.4677C202.328 41.046 200.462 41.328 198.257 41.328H190.822V50.3602C190.822 51.0198 190.579 51.588 190.103 52.0409L190.102 52.0399C189.659 52.489 189.107 52.7167 188.468 52.7167C187.906 52.7166 187.41 52.5404 186.997 52.1913L186.825 52.0311C186.38 51.576 186.159 51.0108 186.159 50.3602V23.4491C186.159 22.8032 186.377 22.2414 186.815 21.788L186.986 21.6161C187.398 21.2413 187.897 21.0488 188.468 21.0487H198.257ZM190.822 36.7909H197.871C199.988 36.7909 201.562 36.5003 202.629 35.9559L203.022 35.7294C203.898 35.1881 204.49 34.5554 204.828 33.8407C205.235 32.9485 205.436 32.0655 205.436 31.1884C205.436 30.3927 205.282 29.617 204.971 28.8593L204.828 28.536C204.443 27.7216 203.728 27.0267 202.636 26.4677L202.629 26.4647C201.564 25.8921 199.991 25.5858 197.871 25.5858H190.822V36.7909Z" fill="white" stroke="white" stroke-width="0.756"/>
<line x1="0.636158" y1="17.8315" x2="45.3929" y2="17.8315" stroke="white" stroke-width="0.70054"/>
<rect x="10.288" y="0.979654" width="4.77775" height="10.0852" rx="1.40108" stroke="white" stroke-width="1.40108"/>
<rect x="29.981" y="0.979654" width="4.77775" height="10.0852" rx="1.40108" stroke="white" stroke-width="1.40108"/>
<path d="M43.0864 16.3915C43.7356 16.3915 44.2824 16.6027 44.7266 17.025C45.1708 17.4474 45.3929 17.9672 45.3929 18.5845V48.1649C45.3929 48.7822 45.1708 49.302 44.7266 49.7244C44.2824 50.1792 43.7356 50.4066 43.0864 50.4066H22.5331C21.918 50.4066 21.4055 50.1955 20.9955 49.7731C20.5512 49.3833 20.3291 48.8959 20.3291 48.3111C20.3291 47.7264 20.5512 47.239 20.9955 46.8492C21.4055 46.4593 21.918 46.2644 22.5331 46.2644H40.7287V35.4946H30.0809C29.4658 35.4946 28.9533 35.2834 28.5433 34.861C28.099 34.4712 27.8769 33.9839 27.8769 33.3991C27.8769 32.8143 28.099 32.327 28.5433 31.9371C28.9533 31.5473 29.4658 31.3523 30.0809 31.3523H40.7287V20.5338L22.5331 20.5338C21.918 20.5338 21.4055 20.3226 20.9955 19.9002C20.5512 19.5104 20.3291 19.0231 20.3291 18.4383C20.3291 17.8535 20.5512 17.3662 20.9955 16.9763C21.4055 16.5865 21.918 16.3915 22.5331 16.3915H43.0864Z" fill="white"/>
<path d="M2.94264 50.4066C2.29341 50.4066 1.74669 50.1955 1.30248 49.7731C0.858264 49.3508 0.636158 48.831 0.636158 48.2137V18.6332C0.636158 18.0159 0.858264 17.4961 1.30248 17.0738C1.74669 16.619 2.29341 16.3915 2.94264 16.3915H23.4959C24.111 16.3915 24.6236 16.6027 25.0336 17.0251C25.4778 17.4149 25.6999 17.9022 25.6999 18.487C25.6999 19.0718 25.4778 19.5591 25.0336 19.949C24.6236 20.3389 24.111 20.5338 23.4959 20.5338H5.30038V31.3036H15.9481C16.5632 31.3036 17.0758 31.5148 17.4858 31.9371C17.93 32.327 18.1521 32.8143 18.1521 33.3991C18.1521 33.9839 17.93 34.4712 17.4858 34.8611C17.0758 35.2509 16.5632 35.4458 15.9481 35.4458H5.30038V46.2644H23.4959C24.111 46.2644 24.6236 46.4756 25.0336 46.8979C25.4778 47.2878 25.6999 47.7751 25.6999 48.3599C25.6999 48.9447 25.4778 49.432 25.0336 49.8219C24.6236 50.2117 24.111 50.4066 23.4959 50.4066H2.94264Z" fill="white"/>
<path d="M10 7.75195H2.7373V48.3057H43.291V7.75195H35V5.65039H43.291L43.5059 5.66113C44.5655 5.76882 45.3925 6.66388 45.3926 7.75195V48.3057L45.3818 48.5205C45.2811 49.5093 44.4947 50.296 43.5059 50.3965L43.291 50.4072H2.7373L2.52246 50.3965C1.53371 50.2959 0.747157 49.5092 0.646484 48.5205L0.635742 48.3057V7.75195C0.635771 6.66399 1.46295 5.76897 2.52246 5.66113L2.7373 5.65039H10V7.75195ZM30 7.75195H15V5.65039H30V7.75195Z" fill="white"/>
</svg>
