<svg width="209" height="69" viewBox="0 0 209 69" fill="none" xmlns="http://www.w3.org/2000/svg">
<path d="M2.88342 65.0759C2.21253 65.0759 1.64757 64.8412 1.18854 64.372C0.729515 63.9028 0.5 63.3252 0.5 62.6394V30.316C0.5 29.3414 0.835444 28.5112 1.50633 27.8254C2.17722 27.1035 2.98935 26.7425 3.94272 26.7425H5.69056C6.39676 26.7425 7.04999 26.9591 7.65026 27.3923C8.25053 27.8254 8.67425 28.3668 8.92142 29.0165L20.9444 59.6616L32.9675 29.0165C33.25 28.3668 33.6737 27.8254 34.2386 27.3923C34.8389 26.9591 35.4921 26.7425 36.1983 26.7425H37.9462C38.8995 26.7425 39.7117 27.1035 40.3826 27.8254C41.0534 28.5112 41.3889 29.3414 41.3889 30.316V62.6394C41.3889 63.3252 41.1594 63.9028 40.7003 64.372C40.2413 64.8412 39.6764 65.0759 39.0055 65.0759C38.3346 65.0759 37.752 64.8412 37.2576 64.372C36.7986 63.9028 36.5691 63.3252 36.5691 62.6394V31.8861L24.3342 62.8019C24.0517 63.4877 23.6103 64.0471 23.0101 64.4803C22.4098 64.8773 21.7213 65.0759 20.9444 65.0759C20.1676 65.0759 19.4791 64.8773 18.8788 64.4803C18.2785 64.0471 17.8372 63.4877 17.5547 62.8019L5.3198 31.8861V62.6394C5.3198 63.3252 5.07264 63.9028 4.5783 64.372C4.11927 64.8412 3.55431 65.0759 2.88342 65.0759Z" fill="black"/>
<path d="M92.7275 27.8239C93.3828 27.8239 93.9346 28.0814 94.383 28.5965C94.8314 29.1115 95.0556 29.7455 95.0556 30.4983C95.0556 31.875 94.0248 32.8755 92.6345 32.8755L48.7246 32.935C48.1038 32.935 47.5864 32.6774 47.1726 32.1624C46.7242 31.6869 46.5 31.0926 46.5 30.3794C46.5 29.6662 46.7242 29.0719 47.1726 28.5965C47.5864 28.121 48.1038 27.8833 48.7246 27.8833L92.7275 27.8239Z" fill="black"/>
<path d="M92.7275 43.1572C93.3828 43.1572 93.9346 43.4147 94.383 43.9298C94.8314 44.4449 95.0556 45.0788 95.0556 45.8316C95.0556 47.2083 94.0248 48.2089 92.6345 48.2089L48.7246 48.2683C48.1038 48.2683 47.5864 48.0108 47.1726 47.4957C46.7242 47.0202 46.5 46.4259 46.5 45.7127C46.5 44.9996 46.7242 44.4052 47.1726 43.9298C47.5864 43.4543 48.1038 43.2166 48.7246 43.2166L92.7275 43.1572Z" fill="black"/>
<path d="M92.7275 59.9648C93.3828 59.9648 93.9346 60.2223 94.383 60.7374C94.8314 61.2524 95.0556 61.8864 95.0556 62.6392C95.0556 64.0159 94.0248 65.0164 92.6345 65.0164L48.7246 65.0759C48.1038 65.0759 47.5864 64.8183 47.1726 64.3033C46.7242 63.8278 46.5 63.2335 46.5 62.5203C46.5 61.8071 46.7242 61.2128 47.1726 60.7374C47.5864 60.2619 48.1038 60.0242 48.7246 60.0242L92.7275 59.9648Z" fill="black"/>
<path d="M115.474 65.0759C114.807 65.0759 114.246 64.8396 113.79 64.367C113.335 63.8944 113.107 63.3128 113.107 62.6221V31.3774H102.376C101.745 31.3774 101.219 31.1593 100.798 30.7231C100.377 30.2869 100.167 29.7416 100.167 29.0873C100.167 28.4329 100.377 27.8876 100.798 27.4514C101.219 26.9788 101.745 26.7425 102.376 26.7425H128.571C129.203 26.7425 129.729 26.9788 130.15 27.4514C130.605 27.8876 130.833 28.4329 130.833 29.0873C130.833 29.7416 130.605 30.2869 130.15 30.7231C129.729 31.1593 129.203 31.3774 128.571 31.3774H117.893V62.6221C117.893 63.3128 117.648 63.8944 117.157 64.367C116.701 64.8396 116.14 65.0759 115.474 65.0759Z" fill="black"/>
<path d="M164.699 0.5C165.704 0.492125 166.639 1.03556 167.57 1.9707L173.385 7.80078L178.983 13.3975L178.998 13.4131L179.012 13.4297C179.669 14.21 179.941 15.0362 179.892 15.8135C179.843 16.5851 179.481 17.2599 178.96 17.7471C177.958 18.6846 176.293 18.976 174.988 17.8955L174.862 17.7861L174.852 17.7773L174.843 17.7676C173.496 16.3986 171.501 14.403 169.842 12.748C169.013 11.9208 168.268 11.1783 167.731 10.6436C167.725 10.6383 167.72 10.6331 167.715 10.6279V51.8662C167.715 54.5848 167.228 56.9788 166.239 59.0352L166.239 59.0361C165.295 61.0357 164.025 62.7108 162.428 64.0527L162.423 64.0576L162.107 63.6699L162.422 64.0576C160.837 65.3506 159.079 66.3119 157.153 66.9395C155.238 67.5628 153.337 67.877 151.449 67.877C149.562 67.8769 147.66 67.5628 145.746 66.9395C143.819 66.3119 142.062 65.3506 140.477 64.0576L140.471 64.0527C138.876 62.7123 137.589 61.0401 136.609 59.0439L136.604 59.0332C135.652 56.9776 135.184 54.5842 135.184 51.8662V29.3418C135.184 28.5039 135.463 27.774 136.026 27.1836L136.134 27.0684C136.684 26.509 137.366 26.2188 138.156 26.2188C138.991 26.2188 139.706 26.5433 140.272 27.168C140.876 27.7561 141.183 28.4911 141.183 29.3418V52.0371C141.183 54.3214 141.679 56.1987 142.642 57.6973C143.653 59.1774 144.936 60.2918 146.494 61.0488H146.495C148.078 61.7792 149.728 62.1435 151.449 62.1436C153.063 62.1436 154.615 61.8236 156.107 61.1816L156.404 61.0488C157.965 60.2907 159.23 59.1753 160.205 57.6934L160.207 57.6904L160.388 57.4053C161.265 55.957 161.716 54.1756 161.716 52.0371V10.5498C161.229 11.0394 160.566 11.7069 159.808 12.4678C158.219 14.0627 156.215 16.0711 154.553 17.7217L154.546 17.7285L154.406 17.8516C151.603 20.1959 147.916 16.5414 150.133 13.7256L150.152 13.7021L150.173 13.6807C152.422 11.4439 154.046 9.80853 155.757 8.08594C157.468 6.36326 159.266 4.55341 161.864 1.96973L162.206 1.64648C163.007 0.933143 163.823 0.506909 164.699 0.5Z" fill="black" stroke="black"/>
<path d="M192.337 26.2425C195.256 26.2426 197.728 26.6353 199.736 27.4418H199.735C201.752 28.1981 203.372 29.2414 204.57 30.5863L204.794 30.8304C205.895 32.055 206.691 33.4104 207.176 34.8949H207.177C207.725 36.4583 208 38.0456 208 39.6546C208 41.2639 207.725 42.8518 207.177 44.4154L207.176 44.4144C206.659 45.9968 205.789 47.4512 204.575 48.7757L204.574 48.7748C203.375 50.084 201.754 51.1308 199.733 51.9271L199.728 51.9291C197.723 52.6942 195.253 53.0667 192.337 53.0668H182.501V65.014C182.501 65.8865 182.181 66.6384 181.551 67.2377L181.55 67.2367C180.964 67.8307 180.234 68.1312 179.389 68.1312C178.645 68.1312 177.988 67.8987 177.442 67.4369L177.214 67.225C176.626 66.6228 176.333 65.8747 176.333 65.014V29.4183C176.333 28.5639 176.622 27.8209 177.201 27.2211L177.313 27.1039C177.879 26.5356 178.58 26.2425 179.389 26.2425H192.337ZM182.501 47.0648H191.826C194.632 47.0648 196.718 46.6793 198.129 45.9564C199.572 45.1788 200.519 44.2415 201.029 43.1634C201.568 41.9833 201.832 40.8148 201.832 39.6546C201.832 38.6024 201.628 37.5767 201.217 36.5746L201.029 36.1459C200.52 35.0686 199.573 34.1509 198.129 33.4115L198.119 33.4066V33.4056C196.711 32.6484 194.63 32.2445 191.826 32.2445H182.501V47.0648Z" fill="black" stroke="black"/>
</svg>
