<svg width="211" height="54" viewBox="0 0 211 54" fill="none" xmlns="http://www.w3.org/2000/svg">
<path d="M122.774 22.9352C123.27 22.9352 123.687 23.1299 124.026 23.5193C124.365 23.9087 124.534 24.388 124.534 24.9571C124.534 25.9978 123.755 26.7543 122.704 26.7543L89.5081 26.7992C89.0387 26.7992 88.6476 26.6045 88.3347 26.2151C87.9958 25.8557 87.8263 25.4064 87.8263 24.8672C87.8263 24.328 87.9958 23.8787 88.3347 23.5193C88.6476 23.1599 89.0387 22.9801 89.5081 22.9801L122.774 22.9352Z" fill="black"/>
<path d="M54.8521 51.0977C54.345 51.0977 53.9178 50.9204 53.5708 50.5656C53.2238 50.2109 53.0503 49.7743 53.0503 49.2558V24.8193C53.0503 24.0825 53.3039 23.4549 53.8111 22.9364C54.3183 22.3906 54.9322 22.1177 55.653 22.1177H56.9743C57.5082 22.1177 58.0021 22.2815 58.4559 22.6089C58.9097 22.9364 59.23 23.3457 59.4169 23.8369L68.5063 47.0045L77.5957 23.8369C77.8092 23.3457 78.1296 22.9364 78.5567 22.6089C79.0105 22.2815 79.5043 22.1177 80.0382 22.1177H81.3596C82.0803 22.1177 82.6943 22.3906 83.2015 22.9364C83.7087 23.4549 83.9623 24.0825 83.9623 24.8193V49.2558C83.9623 49.7743 83.7888 50.2109 83.4417 50.5656C83.0947 50.9204 82.6676 51.0977 82.1604 51.0977C81.6532 51.0977 81.2128 50.9204 80.839 50.5656C80.492 50.2109 80.3185 49.7743 80.3185 49.2558V26.0063L71.0689 49.3786C70.8554 49.8971 70.5217 50.32 70.0679 50.6475C69.6141 50.9476 69.0936 51.0977 68.5063 51.0977C67.919 51.0977 67.3985 50.9476 66.9447 50.6475C66.4909 50.32 66.1572 49.8971 65.9436 49.3786L56.694 26.0063V49.2558C56.694 49.7743 56.5072 50.2109 56.1335 50.5656C55.7864 50.9204 55.3593 51.0977 54.8521 51.0977Z" fill="black"/>
<path d="M122.774 34.5272C123.27 34.5272 123.687 34.7219 124.026 35.1113C124.365 35.5007 124.534 35.9799 124.534 36.5491C124.534 37.5898 123.755 38.3463 122.704 38.3463L89.5081 38.3912C89.0387 38.3912 88.6476 38.1965 88.3347 37.8071C87.9958 37.4477 87.8263 36.9984 87.8263 36.4592C87.8263 35.92 87.9958 35.4707 88.3347 35.1113C88.6476 34.7519 89.0387 34.5721 89.5081 34.5721L122.774 34.5272Z" fill="#E69D11"/>
<path d="M122.774 47.2337C123.27 47.2337 123.687 47.4284 124.026 47.8178C124.365 48.2072 124.534 48.6865 124.534 49.2556C124.534 50.2964 123.755 51.0528 122.704 51.0528L89.5081 51.0977C89.0387 51.0977 88.6476 50.903 88.3347 50.5136C87.9958 50.1542 87.8263 49.7049 87.8263 49.1657C87.8263 48.6266 87.9958 48.1773 88.3347 47.8178C88.6476 47.4584 89.0387 47.2787 89.5081 47.2787L122.774 47.2337Z" fill="black"/>
<path d="M139.97 51.0977C139.467 51.0977 139.042 50.9191 138.698 50.5618C138.353 50.2046 138.181 49.7648 138.181 49.2427V25.6217H130.068C129.591 25.6217 129.194 25.4568 128.875 25.127C128.557 24.7973 128.398 24.385 128.398 23.8903C128.398 23.3957 128.557 22.9834 128.875 22.6536C129.194 22.2964 129.591 22.1177 130.068 22.1177H149.872C150.35 22.1177 150.747 22.2964 151.065 22.6536C151.41 22.9834 151.582 23.3957 151.582 23.8903C151.582 24.385 151.41 24.7973 151.065 25.127C150.747 25.4568 150.35 25.6217 149.872 25.6217H141.8V49.2427C141.8 49.7648 141.614 50.2046 141.243 50.5618C140.898 50.9191 140.474 51.0977 139.97 51.0977Z" fill="black"/>
<path d="M177.185 2.27846C177.944 2.27247 178.651 2.68366 179.355 3.39076L183.751 7.79799L187.984 12.0285L187.995 12.0402L188.006 12.0529C188.503 12.6428 188.707 13.2679 188.67 13.8556C188.633 14.4389 188.36 14.9493 187.966 15.3175C187.184 16.0491 185.867 16.26 184.867 15.3468L184.854 15.3331C183.835 14.2982 182.327 12.7884 181.073 11.5372C180.447 10.9119 179.883 10.3517 179.477 9.9474C179.473 9.94353 179.469 9.93953 179.465 9.93568V41.1115C179.465 43.1669 179.096 44.9767 178.348 46.5314L178.349 46.5324C177.635 48.0439 176.675 49.3099 175.468 50.3244L175.464 50.3283C174.415 51.1837 173.267 51.8472 172.02 52.3175L171.48 52.507C170.033 52.9782 168.595 53.215 167.168 53.215C165.92 53.215 164.663 53.0341 163.399 52.673L162.857 52.507C161.4 52.0325 160.071 51.3059 158.872 50.3283L158.868 50.3244C157.662 49.3109 156.69 48.0465 155.948 46.5372L155.945 46.5294C155.225 44.9755 154.871 43.1661 154.871 41.1115V24.0831C154.871 23.5248 155.035 23.0296 155.365 22.6144L155.517 22.4406C155.945 21.9673 156.486 21.7218 157.118 21.7218C157.745 21.7219 158.282 21.9648 158.708 22.4308H158.709C159.172 22.8768 159.406 23.4361 159.406 24.0831V41.2404C159.406 42.9648 159.781 44.3827 160.506 45.5148C161.271 46.6365 162.243 47.4807 163.423 48.0538L163.874 48.2482C164.932 48.6707 166.03 48.881 167.168 48.881C168.469 48.881 169.717 48.6059 170.913 48.0538C172.094 47.4808 173.05 46.6371 173.787 45.5167L173.789 45.5148L173.926 45.299C174.589 44.2041 174.93 42.8571 174.93 41.2404V9.87611C174.562 10.2462 174.061 10.751 173.488 11.3263C172.286 12.5321 170.77 14.0501 169.514 15.298L169.503 15.3087C167.374 17.2564 164.47 14.439 166.173 12.2765L166.187 12.2589L166.203 12.2423C167.903 10.5514 169.131 9.31507 170.424 8.01283C171.718 6.71042 173.077 5.34222 175.041 3.38881L175.3 3.14467C175.905 2.60549 176.523 2.28374 177.185 2.27846Z" fill="#4154C0" stroke="#4154C0" stroke-width="0.756"/>
<path d="M198.079 21.7398C200.285 21.7398 202.155 22.0363 203.673 22.6461H203.672C205.197 23.2179 206.421 24.0071 207.327 25.024L207.66 25.3951C208.408 26.2714 208.956 27.2334 209.298 28.2808L209.443 28.7252C209.761 29.7633 209.92 30.8151 209.92 31.8795C209.92 33.0931 209.712 34.29 209.3 35.4693L209.301 35.4703C208.91 36.6695 208.251 37.7715 207.331 38.775L207.33 38.774C206.424 39.7638 205.198 40.5558 203.67 41.1578L203.666 41.1588C202.15 41.7371 200.283 42.0191 198.079 42.0191H190.643V51.0513C190.643 51.7109 190.401 52.279 189.925 52.732L189.924 52.731C189.48 53.1801 188.928 53.4078 188.29 53.4078C187.727 53.4077 187.231 53.2315 186.818 52.8824L186.646 52.7222C186.202 52.2671 185.98 51.7019 185.98 51.0513V24.1402C185.98 23.4943 186.198 22.9325 186.637 22.4791L186.807 22.3072C187.22 21.9324 187.719 21.7399 188.29 21.7398H198.079ZM190.643 37.482H197.692C199.81 37.482 201.384 37.1914 202.451 36.647L202.844 36.4205C203.72 35.8792 204.312 35.2465 204.649 34.5318C205.057 33.6396 205.258 32.7566 205.258 31.8795C205.258 31.0838 205.104 30.3081 204.793 29.5504L204.649 29.2271C204.264 28.4127 203.549 27.7178 202.458 27.1588L202.451 27.1558C201.386 26.5831 199.812 26.2769 197.692 26.2769H190.643V37.482Z" fill="#4154C0" stroke="#4154C0" stroke-width="0.756"/>
<rect x="4.03831" y="20.6632" width="37.5956" height="26.854" fill="#E69D11"/>
<path d="M2.24803 8.83183C2.24803 8.44493 2.56167 8.13129 2.94857 8.13129H42.7237C43.1106 8.13129 43.4242 8.44493 43.4242 8.83183V17.0826H2.24803V8.83183Z" fill="#4154C0"/>
<rect x="1.50854" y="7.39184" width="42.6551" height="42.6551" rx="1.05081" stroke="black" stroke-width="2.10162"/>
<line x1="0.457733" y1="18.5226" x2="45.2144" y2="18.5226" stroke="black" stroke-width="0.70054"/>
<rect x="10.1096" y="1.67075" width="4.77775" height="10.0852" rx="1.40108" fill="#E69D11" stroke="black" stroke-width="1.40108"/>
<rect x="29.8026" y="1.67075" width="4.77775" height="10.0852" rx="1.40108" fill="#E69D11" stroke="black" stroke-width="1.40108"/>
<path d="M42.908 17.0826C43.5572 17.0826 44.1039 17.2938 44.5482 17.7161C44.9924 18.1385 45.2145 18.6583 45.2145 19.2756V48.856C45.2145 49.4733 44.9924 49.9931 44.5482 50.4155C44.1039 50.8703 43.5572 51.0977 42.908 51.0977H22.3547C21.7396 51.0977 21.2271 50.8866 20.817 50.4642C20.3728 50.0744 20.1507 49.587 20.1507 49.0022C20.1507 48.4175 20.3728 47.9301 20.817 47.5403C21.2271 47.1504 21.7396 46.9555 22.3547 46.9555H40.5503V36.1857H29.9025C29.2874 36.1857 28.7749 35.9745 28.3648 35.5521C27.9206 35.1623 27.6985 34.675 27.6985 34.0902C27.6985 33.5054 27.9206 33.0181 28.3648 32.6282C28.7749 32.2384 29.2874 32.0434 29.9025 32.0434H40.5503V21.2249L22.3547 21.2249C21.7396 21.2249 21.2271 21.0137 20.817 20.5914C20.3728 20.2015 20.1507 19.7142 20.1507 19.1294C20.1507 18.5446 20.3728 18.0573 20.817 17.6674C21.2271 17.2776 21.7396 17.0826 22.3547 17.0826H42.908Z" fill="black"/>
<path d="M2.76421 51.0977C2.11498 51.0977 1.56826 50.8866 1.12405 50.4642C0.679839 50.0419 0.457733 49.5221 0.457733 48.9048V19.3243C0.457733 18.707 0.679839 18.1872 1.12405 17.7649C1.56826 17.3101 2.11498 17.0826 2.76421 17.0826H23.3175C23.9326 17.0826 24.4451 17.2938 24.8552 17.7162C25.2994 18.106 25.5215 18.5933 25.5215 19.1781C25.5215 19.7629 25.2994 20.2502 24.8552 20.6401C24.4451 21.03 23.9326 21.2249 23.3175 21.2249H5.12195V31.9947H15.7697C16.3848 31.9947 16.8973 32.2059 17.3074 32.6282C17.7516 33.0181 17.9737 33.5054 17.9737 34.0902C17.9737 34.675 17.7516 35.1623 17.3074 35.5522C16.8973 35.942 16.3848 36.1369 15.7697 36.1369H5.12195V46.9555H23.3175C23.9326 46.9555 24.4451 47.1667 24.8552 47.589C25.2994 47.9789 25.5215 48.4662 25.5215 49.051C25.5215 49.6358 25.2994 50.1231 24.8552 50.513C24.4451 50.9028 23.9326 51.0977 23.3175 51.0977H2.76421Z" fill="black"/>
</svg>
