<svg width="208" height="133" viewBox="0 0 208 133" fill="none" xmlns="http://www.w3.org/2000/svg">
<path d="M92.2275 92C92.8828 92 93.4346 92.2575 93.883 92.7726C94.3314 93.2877 94.5556 93.9216 94.5556 94.6744C94.5556 96.0511 93.5248 97.0517 92.1345 97.0517L48.2246 97.1111C47.6038 97.1111 47.0864 96.8536 46.6726 96.3385C46.2242 95.8631 46 95.2687 46 94.5556C46 93.8424 46.2242 93.2481 46.6726 92.7726C47.0864 92.2972 47.6038 92.0594 48.2246 92.0594L92.2275 92Z" fill="white"/>
<path d="M2.38342 129.252C1.71253 129.252 1.14757 129.017 0.688544 128.548C0.229515 128.079 0 127.501 0 126.816V94.4921C0 93.5175 0.335444 92.6873 1.00633 92.0015C1.67722 91.2796 2.48935 90.9187 3.44272 90.9187H5.19056C5.89676 90.9187 6.54999 91.1352 7.15026 91.5684C7.75053 92.0015 8.17425 92.543 8.42142 93.1927L20.4444 123.838L32.4675 93.1927C32.75 92.543 33.1737 92.0015 33.7386 91.5684C34.3389 91.1352 34.9921 90.9187 35.6983 90.9187H37.4462C38.3995 90.9187 39.2117 91.2796 39.8826 92.0015C40.5534 92.6873 40.8889 93.5175 40.8889 94.4921V126.816C40.8889 127.501 40.6594 128.079 40.2003 128.548C39.7413 129.017 39.1764 129.252 38.5055 129.252C37.8346 129.252 37.252 129.017 36.7576 128.548C36.2986 128.079 36.0691 127.501 36.0691 126.816V96.0623L23.8342 126.978C23.5517 127.664 23.1103 128.223 22.5101 128.656C21.9098 129.053 21.2213 129.252 20.4444 129.252C19.6676 129.252 18.9791 129.053 18.3788 128.656C17.7785 128.223 17.3372 127.664 17.0547 126.978L4.8198 96.0623V126.816C4.8198 127.501 4.57264 128.079 4.0783 128.548C3.61927 129.017 3.05431 129.252 2.38342 129.252Z" fill="white"/>
<path d="M92.2275 107.333C92.8828 107.333 93.4346 107.591 93.883 108.106C94.3314 108.621 94.5556 109.255 94.5556 110.008C94.5556 111.384 93.5248 112.385 92.1345 112.385L48.2246 112.444C47.6038 112.444 47.0864 112.187 46.6726 111.672C46.2242 111.196 46 110.602 46 109.889C46 109.176 46.2242 108.581 46.6726 108.106C47.0864 107.63 47.6038 107.393 48.2246 107.393L92.2275 107.333Z" fill="white"/>
<path d="M92.2275 124.141C92.8828 124.141 93.4346 124.398 93.883 124.914C94.3314 125.429 94.5556 126.063 94.5556 126.815C94.5556 128.192 93.5248 129.193 92.1345 129.193L48.2246 129.252C47.6038 129.252 47.0864 128.994 46.6726 128.479C46.2242 128.004 46 127.41 46 126.696C46 125.983 46.2242 125.389 46.6726 124.914C47.0864 124.438 47.6038 124.2 48.2246 124.2L92.2275 124.141Z" fill="white"/>
<path d="M114.974 129.252C114.307 129.252 113.746 129.016 113.29 128.543C112.835 128.071 112.607 127.489 112.607 126.798V95.5536H101.876C101.245 95.5536 100.719 95.3355 100.298 94.8992C99.8771 94.463 99.6667 93.9177 99.6667 93.2634C99.6667 92.609 99.8771 92.0638 100.298 91.6275C100.719 91.155 101.245 90.9187 101.876 90.9187H128.071C128.703 90.9187 129.229 91.155 129.65 91.6275C130.105 92.0638 130.333 92.609 130.333 93.2634C130.333 93.9177 130.105 94.463 129.65 94.8992C129.229 95.3355 128.703 95.5536 128.071 95.5536H117.393V126.798C117.393 127.489 117.148 128.071 116.657 128.543C116.201 129.016 115.64 129.252 114.974 129.252Z" fill="white"/>
<path d="M164.199 64.6761C165.204 64.6683 166.139 65.2117 167.07 66.1469L172.885 71.9769L178.483 77.5736L178.498 77.5892L178.512 77.6058C179.169 78.3862 179.441 79.2123 179.392 79.9896C179.343 80.7612 178.981 81.436 178.46 81.9232C177.458 82.8608 175.793 83.1522 174.488 82.0717L174.362 81.9623L174.352 81.9535L174.343 81.9437C172.996 80.5747 171.001 78.5791 169.342 76.9242C168.513 76.0969 167.768 75.3545 167.231 74.8197C167.225 74.8145 167.22 74.8093 167.215 74.8041V116.042C167.215 118.761 166.728 121.155 165.739 123.211L165.739 123.212C164.795 125.212 163.525 126.887 161.928 128.229L161.923 128.234L161.607 127.846L161.922 128.234C160.337 129.527 158.579 130.488 156.653 131.116C154.738 131.739 152.837 132.053 150.949 132.053C149.062 132.053 147.16 131.739 145.246 131.116C143.319 130.488 141.562 129.527 139.977 128.234L139.971 128.229C138.376 126.888 137.089 125.216 136.109 123.22L136.104 123.209C135.152 121.154 134.684 118.76 134.684 116.042V93.5179C134.684 92.68 134.963 91.9501 135.526 91.3597L135.634 91.2445C136.184 90.6851 136.866 90.395 137.656 90.3949C138.491 90.3949 139.206 90.7194 139.772 91.3441C140.376 91.9323 140.683 92.6673 140.683 93.5179V116.213C140.683 118.498 141.179 120.375 142.142 121.873C143.153 123.354 144.436 124.468 145.994 125.225H145.995C147.578 125.955 149.228 126.32 150.949 126.32C152.563 126.32 154.115 126 155.607 125.358L155.904 125.225C157.465 124.467 158.73 123.351 159.705 121.87L159.707 121.867L159.888 121.581C160.765 120.133 161.216 118.352 161.216 116.213V74.726C160.729 75.2155 160.066 75.8831 159.308 76.6439C157.719 78.2388 155.715 80.2472 154.053 81.8978L154.046 81.9047L153.906 82.0277C151.103 84.3721 147.416 80.7176 149.633 77.9017L149.652 77.8783L149.673 77.8568C151.922 75.6201 153.546 73.9847 155.257 72.2621C156.968 70.5394 158.766 68.7296 161.364 66.1459L161.706 65.8226C162.507 65.1093 163.323 64.6831 164.199 64.6761Z" fill="white" stroke="white"/>
<path d="M191.837 90.4187C194.756 90.4187 197.228 90.8114 199.236 91.6179H199.235C201.252 92.3742 202.872 93.4175 204.07 94.7624L204.294 95.0066C205.395 96.2311 206.191 97.5865 206.676 99.071H206.677C207.225 100.634 207.5 102.222 207.5 103.831C207.5 105.44 207.225 107.028 206.677 108.592L206.676 108.591C206.159 110.173 205.289 111.627 204.075 112.952L204.074 112.951C202.875 114.26 201.254 115.307 199.233 116.103L199.228 116.105C197.223 116.87 194.753 117.243 191.837 117.243H182.001V129.19C182.001 130.063 181.681 130.815 181.051 131.414L181.05 131.413C180.464 132.007 179.734 132.307 178.889 132.307C178.145 132.307 177.488 132.075 176.942 131.613L176.714 131.401C176.126 130.799 175.833 130.051 175.833 129.19V93.5945C175.833 92.7401 176.122 91.997 176.701 91.3972L176.813 91.28C177.379 90.7118 178.08 90.4187 178.889 90.4187H191.837ZM182.001 111.241H191.326C194.132 111.241 196.218 110.855 197.629 110.133C199.072 109.355 200.019 108.418 200.529 107.34C201.068 106.159 201.332 104.991 201.332 103.831C201.332 102.779 201.128 101.753 200.717 100.751L200.529 100.322C200.02 99.2448 199.073 98.327 197.629 97.5876L197.619 97.5827V97.5818C196.211 96.8245 194.13 96.4206 191.326 96.4206H182.001V111.241Z" fill="white" stroke="white"/>
<line x1="63.8889" y1="25.0555" x2="127.778" y2="25.0555" stroke="white"/>
<rect x="77.6667" y="1" width="6.82009" height="14.3963" rx="2" stroke="white" stroke-width="2"/>
<rect x="105.778" y="1" width="6.82009" height="14.3963" rx="2" stroke="white" stroke-width="2"/>
<path d="M124.485 23C125.412 23 126.193 23.3014 126.827 23.9043C127.461 24.5072 127.778 25.2492 127.778 26.1304V68.3556C127.778 69.2367 127.461 69.9788 126.827 70.5816C126.193 71.2309 125.412 71.5555 124.485 71.5555H95.1461C94.2681 71.5555 93.5365 71.2541 92.9511 70.6512C92.317 70.0947 92 69.3991 92 68.5643C92 67.7295 92.317 67.0339 92.9511 66.4774C93.5365 65.9209 94.2681 65.6426 95.1461 65.6426H121.12V50.269H105.92C105.042 50.269 104.311 49.9676 103.725 49.3647C103.091 48.8082 102.774 48.1125 102.774 47.2778C102.774 46.443 103.091 45.7474 103.725 45.1908C104.311 44.6343 105.042 44.3561 105.92 44.3561H121.12V28.9129H95.1461C94.2681 28.9129 93.5365 28.6115 92.9511 28.0086C92.317 27.4521 92 26.7564 92 25.9217C92 25.0869 92.317 24.3913 92.9511 23.8348C93.5365 23.2782 94.2681 23 95.1461 23H124.485Z" fill="white"/>
<path d="M67.1813 71.5556C66.2546 71.5556 65.4741 71.2541 64.84 70.6512C64.2059 70.0483 63.8889 69.3063 63.8889 68.4252V26.1999C63.8889 25.3188 64.2059 24.5768 64.84 23.9739C65.4741 23.3246 66.2546 23 67.1813 23H96.5206C97.3985 23 98.1302 23.3014 98.7155 23.9043C99.3496 24.4608 99.6667 25.1565 99.6667 25.9912C99.6667 26.826 99.3496 27.5216 98.7155 28.0782C98.1302 28.6347 97.3985 28.9129 96.5206 28.9129H70.5469V44.2865H85.7463C86.6243 44.2865 87.3559 44.588 87.9413 45.1909C88.5754 45.7474 88.8924 46.443 88.8924 47.2778C88.8924 48.1125 88.5754 48.8082 87.9413 49.3647C87.3559 49.9212 86.6243 50.1995 85.7463 50.1995H70.5469V65.6426H96.5206C97.3985 65.6426 98.1302 65.9441 98.7155 66.547C99.3496 67.1035 99.6667 67.7991 99.6667 68.6339C99.6667 69.4686 99.3496 70.1643 98.7155 70.7208C98.1302 71.2773 97.3985 71.5556 96.5206 71.5556H67.1813Z" fill="white"/>
<path d="M78 10.667H66.8887V68.5557H124.777V10.667H112V7.66699H124.777L124.932 7.6709C126.517 7.7511 127.777 9.06181 127.777 10.667V68.5557L127.773 68.71C127.696 70.244 126.466 71.4741 124.932 71.5518L124.777 71.5557H66.8887L66.7344 71.5518C65.2005 71.4739 63.9703 70.2439 63.8926 68.71L63.8887 68.5557V10.667C63.8887 9.06196 65.1493 7.75132 66.7344 7.6709L66.8887 7.66699H78V10.667ZM106 10.667H84V7.66699H106V10.667Z" fill="white"/>
</svg>
