<svg width="402" height="100" viewBox="0 0 402 100" fill="none" xmlns="http://www.w3.org/2000/svg">
<path d="M234.931 38.9532C235.883 38.9532 236.684 39.3271 237.335 40.0751C237.987 40.8231 238.312 41.7437 238.312 42.8369C238.312 44.8361 236.815 46.2891 234.796 46.2891L171.031 46.3754C170.129 46.3754 169.378 46.0014 168.777 45.2535C168.126 44.563 167.8 43.7 167.8 42.6643C167.8 41.6286 168.126 40.7656 168.777 40.0751C169.378 39.3847 170.129 39.0395 171.031 39.0395L234.931 38.9532Z" fill="black"/>
<path d="M104.461 93.0499C103.487 93.0499 102.666 92.7092 102 92.0278C101.333 91.3463 101 90.5077 101 89.5117V42.5722C101 41.1569 101.487 39.9513 102.461 38.9554C103.436 37.907 104.615 37.3829 105.999 37.3829H108.538C109.563 37.3829 110.512 37.6974 111.383 38.3264C112.255 38.9554 112.871 39.7416 113.229 40.6852L130.689 85.1873L148.149 40.6852C148.559 39.7416 149.174 38.9554 149.995 38.3264C150.866 37.6974 151.815 37.3829 152.841 37.3829H155.379C156.763 37.3829 157.943 37.907 158.917 38.9554C159.891 39.9513 160.378 41.1569 160.378 42.5722V89.5117C160.378 90.5077 160.045 91.3463 159.378 92.0278C158.712 92.7092 157.891 93.0499 156.917 93.0499C155.943 93.0499 155.097 92.7092 154.379 92.0278C153.712 91.3463 153.379 90.5077 153.379 89.5117V44.8523L135.612 89.7476C135.201 90.7436 134.56 91.556 133.689 92.185C132.817 92.7616 131.817 93.0499 130.689 93.0499C129.561 93.0499 128.561 92.7616 127.689 92.185C126.818 91.556 126.177 90.7436 125.767 89.7476L107.999 44.8523V89.5117C107.999 90.5077 107.64 91.3463 106.922 92.0278C106.256 92.7092 105.435 93.0499 104.461 93.0499Z" fill="black"/>
<path d="M234.931 61.2199C235.883 61.2199 236.684 61.5939 237.335 62.3419C237.987 63.0899 238.312 64.0105 238.312 65.1037C238.312 67.1029 236.815 68.5559 234.796 68.5559L171.031 68.6422C170.129 68.6422 169.378 68.2682 168.777 67.5202C168.126 66.8298 167.8 65.9667 167.8 64.9311C167.8 63.8954 168.126 63.0324 168.777 62.3419C169.378 61.6515 170.129 61.3062 171.031 61.3062L234.931 61.2199Z" fill="#E69D11"/>
<path d="M234.931 85.6277C235.883 85.6277 236.684 86.0016 237.335 86.7496C237.987 87.4976 238.312 88.4182 238.312 89.5114C238.312 91.5106 236.815 92.9636 234.796 92.9636L171.031 93.0499C170.129 93.0499 169.378 92.6759 168.777 91.928C168.126 91.2375 167.8 90.3745 167.8 89.3388C167.8 88.3031 168.126 87.4401 168.777 86.7496C169.378 86.0592 170.129 85.714 171.031 85.714L234.931 85.6277Z" fill="black"/>
<path d="M267.963 93.0499C266.995 93.0499 266.181 92.7068 265.519 92.0205C264.857 91.3342 264.526 90.4896 264.526 89.4866V44.1136H248.943C248.026 44.1136 247.262 43.7969 246.651 43.1634C246.04 42.5299 245.734 41.738 245.734 40.7878C245.734 39.8376 246.04 39.0458 246.651 38.4123C247.262 37.726 248.026 37.3829 248.943 37.3829H286.983C287.9 37.3829 288.664 37.726 289.275 38.4123C289.937 39.0458 290.268 39.8376 290.268 40.7878C290.268 41.738 289.937 42.5299 289.275 43.1634C288.664 43.7969 287.9 44.1136 286.983 44.1136H271.477V89.4866C271.477 90.4896 271.12 91.3342 270.407 92.0205C269.745 92.7068 268.931 93.0499 267.963 93.0499Z" fill="black"/>
<path d="M338.498 3.30273C339.9 3.29168 341.204 4.05009 342.504 5.35547C344.287 7.14689 347.48 10.3467 350.621 13.4922L358.434 21.3037L358.456 21.3252L358.476 21.3486C359.393 22.4377 359.772 23.5909 359.703 24.6758C359.635 25.7528 359.129 26.695 358.402 27.375C356.958 28.7257 354.528 29.1152 352.683 27.4297L352.669 27.417L352.655 27.4033C350.775 25.4925 347.992 22.7063 345.677 20.3965C344.519 19.2419 343.48 18.2064 342.729 17.46C342.722 17.4528 342.715 17.4456 342.708 17.4385V74.9961C342.708 78.7908 342.028 82.1326 340.646 85.0029L340.647 85.0039C339.33 87.7947 337.557 90.1328 335.328 92.0059L335.32 92.0117C333.107 93.8166 330.654 95.1582 327.965 96.0342C325.293 96.9042 322.639 97.3428 320.005 97.3428C317.371 97.3428 314.716 96.9042 312.045 96.0342C309.355 95.1582 306.902 93.8166 304.689 92.0117L304.682 92.0059C302.455 90.1348 300.659 87.8002 299.29 85.0137L299.287 85.0068L299.283 84.999C297.955 82.13 297.302 78.7894 297.302 74.9961V43.5576C297.302 42.4529 297.649 41.4822 298.35 40.6836L298.494 40.5264C299.284 39.6526 300.283 39.1983 301.45 39.1982C302.613 39.1982 303.609 39.6498 304.397 40.5176C305.245 41.3395 305.675 42.3674 305.675 43.5576V75.2344C305.675 78.4181 306.366 81.0359 307.705 83.126C309.12 85.2003 310.917 86.7601 313.102 87.8184H313.101C315.307 88.8345 317.606 89.3408 320.005 89.3408C322.403 89.3408 324.702 88.8342 326.908 87.8184L327.312 87.6143C329.312 86.5634 330.947 85.0716 332.226 83.1289L332.228 83.126C333.618 81.0358 334.335 78.4183 334.335 75.2344V17.3291C333.656 18.0124 332.73 18.9438 331.672 20.0059C329.454 22.232 326.655 25.0349 324.336 27.3389L324.326 27.3486L324.315 27.3584C320.384 30.9544 315.024 25.7542 318.168 21.7617L318.193 21.7285L318.224 21.6982C321.362 18.5764 323.629 16.2939 326.017 13.8896C328.405 11.4851 330.915 8.95892 334.54 5.35254C335.811 4.08795 337.1 3.31376 338.498 3.30273Z" fill="#4154C0" stroke="#4154C0" stroke-width="1.39574"/>
<path d="M377.073 39.2316C381.146 39.2316 384.597 39.7797 387.4 40.9054H387.399C390.214 41.961 392.474 43.418 394.146 45.295C395.846 47.0923 397.064 49.0974 397.785 51.3077L397.924 51.7179C398.597 53.7677 398.935 55.8467 398.935 57.9523C398.935 60.1981 398.55 62.4136 397.785 64.5958C397.109 66.6659 395.999 68.5781 394.466 70.3322L394.154 70.6818C392.481 72.5093 390.216 73.9697 387.395 75.0812L387.388 75.0841C384.589 76.152 381.143 76.672 377.073 76.672H363.345V93.3468C363.345 94.5647 362.897 95.6139 362.018 96.4503C361.2 97.2792 360.179 97.6974 359 97.6974C357.813 97.6973 356.786 97.2729 355.965 96.4318C355.145 95.5914 354.736 94.548 354.736 93.3468V43.6642C354.736 42.463 355.145 41.4196 355.965 40.5792C356.779 39.6913 357.804 39.2317 359 39.2316H377.073ZM363.345 68.295H376.36C380.271 68.295 383.177 67.7578 385.147 66.7521C387.166 65.6658 388.491 64.3569 389.203 62.8497C389.956 61.2025 390.325 59.5717 390.326 57.9523C390.326 56.2735 389.954 54.643 389.203 53.0548C388.493 51.5512 387.172 50.2695 385.157 49.2374L385.145 49.2306C383.179 48.1733 380.274 47.6095 376.36 47.6095H363.345V68.295Z" fill="#4154C0" stroke="#4154C0" stroke-width="1.39574"/>
<rect x="7.14288" y="39.2857" width="75" height="53.5714" fill="#E69D11"/>
<path d="M3.57144 15.6832C3.57144 14.9114 4.19713 14.2857 4.96896 14.2857H84.3168C85.0886 14.2857 85.7143 14.9114 85.7143 15.6832V32.1428H3.57144V15.6832Z" fill="#4154C0"/>
<rect x="2.09627" y="12.8106" width="85.0932" height="85.0932" rx="2.09627" stroke="black" stroke-width="4.19255"/>
<line y1="35.0155" x2="89.2857" y2="35.0155" stroke="black" stroke-width="1.39752"/>
<rect x="19.2546" y="1.39752" width="9.53118" height="20.1191" rx="2.79503" fill="#E69D11" stroke="black" stroke-width="2.79503"/>
<rect x="58.5403" y="1.39752" width="9.53118" height="20.1191" rx="2.79503" fill="#E69D11" stroke="black" stroke-width="2.79503"/>
<path d="M84.6845 32.1428C85.9796 32.1428 87.0703 32.5641 87.9565 33.4066C88.8426 34.2492 89.2857 35.2862 89.2857 36.5176V95.528C89.2857 96.7594 88.8426 97.7964 87.9565 98.6389C87.0703 99.5463 85.9796 100 84.6845 100H43.6824C42.4554 100 41.4329 99.5787 40.6149 98.7362C39.7288 97.9584 39.2857 96.9863 39.2857 95.8197C39.2857 94.6531 39.7288 93.6809 40.6149 92.9032C41.4329 92.1254 42.4554 91.7366 43.6824 91.7366H79.981V70.2517H58.7396C57.5126 70.2517 56.4901 69.8304 55.6721 68.9879C54.786 68.2102 54.3429 67.238 54.3429 66.0714C54.3429 64.9048 54.786 63.9326 55.6721 63.1549C56.4901 62.3772 57.5126 61.9883 58.7396 61.9883H79.981V40.4062L43.6824 40.4062C42.4554 40.4062 41.4329 39.985 40.6149 39.1424C39.7288 38.3647 39.2857 37.3925 39.2857 36.2259C39.2857 35.0593 39.7288 34.0872 40.6149 33.3094C41.4329 32.5317 42.4554 32.1428 43.6824 32.1428H84.6845Z" fill="black"/>
<path d="M4.60123 100C3.30607 100 2.21541 99.5788 1.32924 98.7362C0.443082 97.8937 0 96.8567 0 95.6253V36.6148C0 35.3834 0.443082 34.3465 1.32924 33.5039C2.21541 32.5966 3.30607 32.1429 4.60123 32.1429H45.6033C46.8303 32.1429 47.8528 32.5642 48.6708 33.4067C49.5569 34.1844 50 35.1566 50 36.3232C50 37.4898 49.5569 38.462 48.6708 39.2397C47.8528 40.0174 46.8303 40.4063 45.6033 40.4063H9.3047V61.8911H30.5461C31.7731 61.8911 32.7956 62.3124 33.6136 63.155C34.4997 63.9327 34.9428 64.9049 34.9428 66.0715C34.9428 67.2381 34.4997 68.2102 33.6136 68.988C32.7956 69.7657 31.7731 70.1546 30.5461 70.1546H9.3047V91.7366H45.6033C46.8303 91.7366 47.8528 92.1579 48.6708 93.0004C49.5569 93.7782 50 94.7503 50 95.9169C50 97.0835 49.5569 98.0557 48.6708 98.8334C47.8528 99.6112 46.8303 100 45.6033 100H4.60123Z" fill="black"/>
</svg>
