<svg width="90" height="100" viewBox="0 0 90 100" fill="none" xmlns="http://www.w3.org/2000/svg">
<rect x="7.14285" y="39.2857" width="75" height="53.5714" fill="#E69D11"/>
<path d="M3.57141 15.6832C3.57141 14.9114 4.1971 14.2857 4.96893 14.2857H84.3168C85.0886 14.2857 85.7143 14.9114 85.7143 15.6832V32.1429H3.57141V15.6832Z" fill="#4154C0"/>
<rect x="2.09627" y="12.8106" width="85.0932" height="85.0932" rx="2.09627" stroke="black" stroke-width="4.19255"/>
<line y1="35.0156" x2="89.2857" y2="35.0156" stroke="black" stroke-width="1.39752"/>
<rect x="19.2546" y="1.39752" width="9.53118" height="20.1191" rx="2.79503" fill="#E69D11" stroke="black" stroke-width="2.79503"/>
<rect x="58.5403" y="1.39752" width="9.53118" height="20.1191" rx="2.79503" fill="#E69D11" stroke="black" stroke-width="2.79503"/>
<path d="M84.6844 32.1429C85.9796 32.1429 87.0702 32.5642 87.9564 33.4067C88.8426 34.2492 89.2856 35.2862 89.2856 36.5176V95.5281C89.2856 96.7595 88.8426 97.7965 87.9564 98.639C87.0702 99.5464 85.9796 100 84.6844 100H43.6824C42.4554 100 41.4329 99.5788 40.6149 98.7362C39.7287 97.9585 39.2856 96.9863 39.2856 95.8197C39.2856 94.6531 39.7287 93.681 40.6149 92.9032C41.4329 92.1255 42.4554 91.7366 43.6824 91.7366H79.9809V70.2518H58.7396C57.5126 70.2518 56.4901 69.8305 55.6721 68.988C54.7859 68.2102 54.3428 67.2381 54.3428 66.0715C54.3428 64.9049 54.7859 63.9327 55.6721 63.155C56.4901 62.3772 57.5126 61.9884 58.7396 61.9884H79.9809V40.4063L43.6824 40.4063C42.4554 40.4063 41.4329 39.985 40.6149 39.1425C39.7287 38.3647 39.2856 37.3926 39.2856 36.226C39.2856 35.0594 39.7287 34.0872 40.6149 33.3095C41.4329 32.5318 42.4554 32.1429 43.6824 32.1429H84.6844Z" fill="black"/>
<path d="M4.60123 100C3.30607 100 2.21541 99.5787 1.32924 98.7362C0.443082 97.8936 0 96.8567 0 95.6252V36.6148C0 35.3834 0.443082 34.3464 1.32924 33.5039C2.21541 32.5965 3.30607 32.1429 4.60123 32.1429H45.6033C46.8303 32.1429 47.8528 32.5641 48.6708 33.4067C49.5569 34.1844 50 35.1566 50 36.3232C50 37.4898 49.5569 38.4619 48.6708 39.2397C47.8528 40.0174 46.8303 40.4063 45.6033 40.4063H9.3047V61.8911H30.5461C31.7731 61.8911 32.7956 62.3124 33.6136 63.1549C34.4997 63.9327 34.9428 64.9048 34.9428 66.0714C34.9428 67.238 34.4997 68.2102 33.6136 68.9879C32.7956 69.7657 31.7731 70.1545 30.5461 70.1545H9.3047V91.7366H45.6033C46.8303 91.7366 47.8528 92.1579 48.6708 93.0004C49.5569 93.7781 50 94.7503 50 95.9169C50 97.0835 49.5569 98.0557 48.6708 98.8334C47.8528 99.6111 46.8303 100 45.6033 100H4.60123Z" fill="black"/>
</svg>
